<svg width="112" height="32" viewBox="0 0 112 32" fill="none" xmlns="http://www.w3.org/2000/svg">
<path d="M5.02629 0.6875V30.4584H0V0.6875H5.02629Z" fill="#42E9BD"/>
<path d="M28.5735 10.0054V30.4584H23.5472V26.4375C21.7298 29.2988 19.0621 31.116 16.1624 31.116C10.6722 31.116 8.08062 26.9786 8.08062 22.3785V10.0054H13.1069V22.3773C13.1069 24.9295 14.4212 26.089 16.4705 26.089C18.9836 26.089 21.4587 23.9626 23.546 19.6706V10.0054H28.5735Z" fill="#42E9BD"/>
<path d="M41.3319 14.4128C43.3431 14.4128 45.1212 15.5343 45.9336 17.3896L50.5341 15.3416C48.8714 11.6691 45.3532 9.5035 41.3319 9.5035C34.6036 9.5035 31.0082 14.8397 31.0082 20.2521C31.0082 25.5491 34.5656 30.5749 40.83 30.8068C45.4316 30.9995 49.6456 28.5639 50.9218 23.6926L46.0882 22.4165C45.4697 24.7356 43.5358 25.9344 41.1 25.9344C38.0064 25.9344 36.0737 23.4215 36.0737 20.2509C36.0737 16.8877 38.0457 14.4128 41.3319 14.4128Z" fill="#42E9BD"/>
<path d="M52.5453 30.4561V10.0435H57.5716V14.4509C59.1178 11.5122 61.9413 9.65695 65.4202 9.65695V15.1466C61.2051 15.1466 57.5716 18.8191 57.5716 28.8327V30.4561H52.5453Z" fill="#42E9BD"/>
<path fill-rule="evenodd" clip-rule="evenodd" d="M110.54 10.0527C110.54 9.37889 109.853 9.27851 109.329 9.27851H108.368V11.9495H109.116V11.0761H109.279C109.504 11.0761 109.605 11.2007 109.641 11.4384C109.667 11.6264 109.692 11.8007 109.729 11.9507H110.566C110.503 11.8134 110.44 11.6138 110.403 11.2768C110.378 11.0022 110.291 10.7773 110.053 10.7023C110.328 10.6146 110.54 10.4023 110.54 10.0527ZM109.728 10.1785C109.728 10.49 109.466 10.5027 109.228 10.5027H109.116V9.84155H109.241C109.479 9.84155 109.728 9.85424 109.728 10.1785Z" fill="#42E9BD"/>
<path fill-rule="evenodd" clip-rule="evenodd" d="M109.378 13.311C110.926 13.311 112 12.2253 112 10.6896C112 9.1539 110.927 8.0682 109.378 8.0682C107.831 8.0682 106.757 9.1539 106.757 10.6896C106.757 12.2253 107.83 13.311 109.378 13.311ZM109.378 12.6118C108.28 12.6118 107.506 11.8134 107.506 10.6896C107.506 9.5658 108.28 8.76739 109.378 8.76739C110.477 8.76739 111.251 9.5658 111.251 10.6896C111.251 11.8122 110.477 12.6118 109.378 12.6118Z" fill="#42E9BD"/>
<path fill-rule="evenodd" clip-rule="evenodd" d="M76.9683 31.5233C74.057 31.5233 71.4827 30.4964 69.5246 28.5535C67.7003 26.7444 66.5084 24.2095 66.168 21.4162C65.8426 18.7464 66.3203 16.0916 67.5122 13.9398C68.8992 11.4361 71.1793 9.7804 73.9301 9.27736C74.6697 9.14237 75.3978 9.07429 76.0936 9.07429C77.3906 9.07429 78.6125 9.31082 79.726 9.77694C81.1361 10.3677 82.3557 11.3115 83.3504 12.5852C84.9277 14.6032 85.3985 16.7711 85.447 17.0111L85.8924 19.2183L71.5231 23.0754C71.8681 23.8842 72.332 24.581 72.9032 25.1475C73.959 26.194 75.3263 26.7247 76.9671 26.7247C77.1298 26.7247 77.2971 26.719 77.4656 26.7086C80.1322 26.5436 82.4342 25.2075 84.3058 22.7361C85.5454 21.0989 86.1868 19.4843 86.3526 19.0337C86.4562 17.2007 86.9407 15.4469 87.7755 13.9398C89.1625 11.4361 91.4425 9.7804 94.1934 9.27736C94.933 9.14237 95.6611 9.07429 96.3569 9.07429C97.6538 9.07429 98.8758 9.31082 99.9893 9.77694C101.399 10.3677 102.619 11.3115 103.614 12.5852C105.191 14.6032 105.662 16.7711 105.71 17.0111L106.156 19.2183L91.7864 23.0754C92.1314 23.8842 92.5952 24.581 93.1664 25.1475C94.2222 26.194 95.5896 26.7247 97.2304 26.7247C97.3931 26.7247 97.5604 26.719 97.7288 26.7086C99.3373 26.6094 100.826 26.0786 102.153 25.1314C103.226 24.3653 104.202 23.3292 105.056 22.0531L105.184 21.8616L109.174 24.5268L109.046 24.7183C106.265 28.88 102.454 31.2245 98.0254 31.4979C97.7577 31.5152 97.4911 31.5233 97.2315 31.5233C94.3203 31.5233 91.746 30.4964 89.7879 28.5535C89.0343 27.8062 88.3887 26.9352 87.8664 25.9732C85.1849 29.3448 81.6994 31.2522 77.7633 31.4956C77.4956 31.5152 77.2279 31.5233 76.9683 31.5233ZM76.0867 13.8717C75.6828 13.8717 75.2478 13.9144 74.7921 13.9975C73.4432 14.2444 72.4058 15.007 71.7089 16.2658C71.3904 16.8415 71.1516 17.5199 71.0119 18.2457L79.816 15.8827C79.7145 15.7304 79.6072 15.585 79.4964 15.4501C78.6299 14.3874 77.5152 13.8717 76.0867 13.8717ZM95.0553 13.9975C95.5111 13.9144 95.9461 13.8717 96.35 13.8717C97.7773 13.8717 98.8931 14.3874 99.7597 15.4501C99.8704 15.585 99.9778 15.7304 100.079 15.8827L91.2752 18.2457C91.4148 17.5199 91.6537 16.8415 91.9721 16.2658C92.6691 15.007 93.7064 14.2444 95.0553 13.9975Z" fill="#42E9BD"/>
</svg>
