<svg width="32" height="32" viewBox="0 0 32 32" fill="none" xmlns="http://www.w3.org/2000/svg">
<path fill-rule="evenodd" clip-rule="evenodd" d="M21.2308 2.46151C21.2308 1.61184 21.9196 0.923046 22.7692 0.923046H23.3242V15.2307H22.7692C21.9196 15.2307 21.2308 14.5419 21.2308 13.6923V2.46151ZM24.2473 15.2307V0.923046H29.2308C30.0804 0.923046 30.7692 1.61184 30.7692 2.46151V13.6923C30.7692 14.5419 30.0804 15.2307 29.2308 15.2307H24.2473ZM22.7692 -3.05176e-05C21.4098 -3.05176e-05 20.3077 1.10204 20.3077 2.46151V13.6923C20.3077 15.0517 21.4098 16.1538 22.7692 16.1538H23.7857H29.2308C30.5902 16.1538 31.6923 15.0517 31.6923 13.6923V2.46151C31.6923 1.10204 30.5902 -3.05176e-05 29.2308 -3.05176e-05H23.7857H22.7692ZM9.41655 1.18283C9.35762 1.11122 9.24921 1.10764 9.18568 1.17519L7.57842 2.88421C7.40775 3.06569 7.12386 3.07897 6.93699 2.91422L5.22099 1.40135C5.12163 1.31376 4.9654 1.3843 4.9654 1.51675V9.61008H13.5613V1.47599C13.5613 1.34521 13.4085 1.27407 13.3084 1.35828L11.4513 2.92115C11.357 3.00053 11.2348 3.03888 11.112 3.02763C10.9893 3.01639 10.8761 2.95649 10.7977 2.86129L9.41655 1.18283ZM14.4844 9.61008H17.5385V7.36891C17.5385 6.77414 17.0563 6.29199 16.4615 6.29199H16.37C16.1151 6.29199 15.9085 6.08535 15.9085 5.83045C15.9085 5.57555 16.1151 5.36891 16.37 5.36891H16.4615C17.5661 5.36891 18.4615 6.26434 18.4615 7.36891V10.0716V15.4873V29.5384C18.4615 30.8979 17.3595 32 16 32H2.46154C1.10207 32 0 30.8979 0 29.5384V15.4873V10.0716V7.36891C0 6.26434 0.89543 5.36891 2 5.36891H2.09151C2.34641 5.36891 2.55305 5.57555 2.55305 5.83045C2.55305 6.08535 2.34641 6.29199 2.09151 6.29199H2C1.40523 6.29199 0.923077 6.77414 0.923077 7.36891V9.61008H4.04232V1.51675C4.04232 0.5896 5.13597 0.0958035 5.83143 0.708942L7.21218 1.92625L8.51326 0.542801C8.95797 0.0699284 9.71685 0.0950487 10.1293 0.596292L11.214 1.91441L12.7141 0.652019C13.4145 0.0625431 14.4844 0.5605 14.4844 1.47599V9.61008ZM0.923077 10.5332V15.0257H17.5385V10.5332H14.0229H4.50386H0.923077ZM17.5385 15.9488H0.923077V29.5384C0.923077 30.3881 1.61187 31.0769 2.46154 31.0769H16C16.8497 31.0769 17.5385 30.3881 17.5385 29.5384V15.9488ZM12.3077 22.1538C12.3077 21.8989 12.5143 21.6923 12.7692 21.6923H15.0769C15.3318 21.6923 15.5385 21.8989 15.5385 22.1538V27.5384C15.5385 27.7933 15.3318 28 15.0769 28H12.7692C12.5143 28 12.3077 27.7933 12.3077 27.5384V22.1538ZM13.2308 22.6154V27.0769H14.6154V22.6154H13.2308ZM27.5385 1.38458C27.2836 1.38458 27.0769 1.59122 27.0769 1.84612V5.53843C27.0769 5.79333 27.2836 5.99997 27.5385 5.99997H28.9231C29.178 5.99997 29.3846 5.79333 29.3846 5.53843V1.84612C29.3846 1.59122 29.178 1.38458 28.9231 1.38458H27.5385ZM28 5.07689V2.30766H28.4615V5.07689H28ZM12.3077 19.3846C12.3077 19.1297 12.5143 18.923 12.7692 18.923H15.0769C15.3318 18.923 15.5385 19.1297 15.5385 19.3846V20.7692C15.5385 21.0241 15.3318 21.2307 15.0769 21.2307H12.7692C12.5143 21.2307 12.3077 21.0241 12.3077 20.7692V19.3846ZM13.2308 19.8461V20.3077H14.6154V19.8461H13.2308ZM8 18.923C7.7451 18.923 7.53846 19.1297 7.53846 19.3846V20.7692C7.53846 21.0241 7.7451 21.2307 8 21.2307H10.1538C10.4087 21.2307 10.6154 21.0241 10.6154 20.7692V19.3846C10.6154 19.1297 10.4087 18.923 10.1538 18.923H8ZM8.46154 20.3077V19.8461H9.69231V20.3077H8.46154ZM7.53846 26.1538C7.53846 25.8989 7.7451 25.6923 8 25.6923H10.1538C10.4087 25.6923 10.6154 25.8989 10.6154 26.1538V27.5384C10.6154 27.7933 10.4087 28 10.1538 28H8C7.7451 28 7.53846 27.7933 7.53846 27.5384V26.1538ZM8.46154 26.6154V27.0769H9.69231V26.6154H8.46154ZM8 22.1538C7.7451 22.1538 7.53846 22.3605 7.53846 22.6154V24.1538C7.53846 24.4087 7.7451 24.6154 8 24.6154H10.1538C10.4087 24.6154 10.6154 24.4087 10.6154 24.1538V22.6154C10.6154 22.3605 10.4087 22.1538 10.1538 22.1538H8ZM8.46154 23.6923V23.0769H9.69231V23.6923H8.46154ZM2.76923 19.3846C2.76923 19.1297 2.97587 18.923 3.23077 18.923H5.53846C5.79336 18.923 6 19.1297 6 19.3846V20.7692C6 21.0241 5.79336 21.2307 5.53846 21.2307H3.23077C2.97587 21.2307 2.76923 21.0241 2.76923 20.7692V19.3846ZM3.69231 19.8461V20.3077H5.07692V19.8461H3.69231ZM3.23077 25.6923C2.97587 25.6923 2.76923 25.8989 2.76923 26.1538V27.5384C2.76923 27.7933 2.97587 28 3.23077 28H5.53846C5.79336 28 6 27.7933 6 27.5384V26.1538C6 25.8989 5.79336 25.6923 5.53846 25.6923H3.23077ZM3.69231 27.0769V26.6154H5.07692V27.0769H3.69231ZM2.76923 22.6154C2.76923 22.3605 2.97587 22.1538 3.23077 22.1538H5.53846C5.79336 22.1538 6 22.3605 6 22.6154V24.1538C6 24.4087 5.79336 24.6154 5.53846 24.6154H3.23077C2.97587 24.6154 2.76923 24.4087 2.76923 24.1538V22.6154ZM3.69231 23.0769V23.6923H5.07692V23.0769H3.69231Z" fill="#42E9BD"/>
</svg>
