<svg width="32" height="32" viewBox="0 0 32 32" fill="none" xmlns="http://www.w3.org/2000/svg">
<path fill-rule="evenodd" clip-rule="evenodd" d="M10.2564 0.394418C12.6424 -0.195489 15.1443 -0.122561 17.4919 0.605333C19.8395 1.33323 21.9438 2.68844 23.5776 4.52472C25.2114 6.361 26.3127 8.6086 26.7626 11.025C26.8116 11.2882 26.6379 11.5414 26.3747 11.5904C26.1114 11.6394 25.8583 11.4657 25.8093 11.2025C25.3917 8.95973 24.3695 6.87363 22.8531 5.16929C21.3367 3.46496 19.3837 2.20712 17.2047 1.53153C15.0258 0.85594 12.7037 0.788252 10.4891 1.33577C8.2745 1.88329 6.25147 3.02523 4.63837 4.63833C3.02526 6.25144 1.88332 8.27446 1.3358 10.4891C0.788283 12.7037 0.855971 15.0257 1.53156 17.2047C2.20715 19.3836 3.46499 21.3367 5.16932 22.8531C6.87366 24.3695 8.95976 25.3917 11.2025 25.8093C11.4657 25.8583 11.6394 26.1114 11.5904 26.3747C11.5414 26.6379 11.2882 26.8116 11.025 26.7626C8.60863 26.3127 6.36103 25.2114 4.52475 23.5776C2.68847 21.9438 1.33326 19.8395 0.605363 17.4919C-0.12253 15.1442 -0.195459 12.6424 0.394448 10.2563C0.984355 7.87028 2.2147 5.69065 3.95269 3.95266C5.69068 2.21467 7.87031 0.984325 10.2564 0.394418ZM13.5007 7.51136C13.7684 7.51136 13.9855 7.72843 13.9855 7.99621V13.5006C13.9855 13.7684 13.7684 13.9855 13.5007 13.9855H6.49503C6.22725 13.9855 6.01018 13.7684 6.01018 13.5006C6.01018 13.2329 6.22725 13.0158 6.49503 13.0158H13.0158V7.99621C13.0158 7.72843 13.2329 7.51136 13.5007 7.51136ZM22.5079 13.9855C17.8011 13.9855 13.9855 17.8011 13.9855 22.5079C13.9855 27.2147 17.8011 31.0303 22.5079 31.0303C27.2147 31.0303 31.0303 27.2147 31.0303 22.5079C31.0303 17.8011 27.2147 13.9855 22.5079 13.9855ZM13.0158 22.5079C13.0158 17.2655 17.2656 13.0158 22.5079 13.0158C27.7502 13.0158 32 17.2655 32 22.5079C32 27.7502 27.7502 32 22.5079 32C17.2656 32 13.0158 27.7502 13.0158 22.5079ZM22.5079 17.019C22.7757 17.019 22.9928 17.2361 22.9928 17.5039V18.5202H23.1334C23.1424 18.5202 23.1514 18.5205 23.1604 18.521C23.6428 18.5478 24.1092 18.7034 24.5111 18.9713C24.9131 19.2393 25.2361 19.61 25.4464 20.045C25.563 20.286 25.4621 20.576 25.221 20.6925C24.98 20.8091 24.69 20.7082 24.5734 20.4672C24.4385 20.1881 24.2312 19.9502 23.9733 19.7782C23.7188 19.6085 23.4241 19.5091 23.1191 19.4899L21.7587 19.4899C21.7585 19.4899 21.7583 19.4899 21.7581 19.4899C21.4223 19.491 21.1006 19.6249 20.8632 19.8623C20.6259 20.0996 20.4921 20.421 20.4907 20.7565C20.4921 21.092 20.6259 21.4134 20.8632 21.6506C21.1006 21.888 21.4223 22.0219 21.7581 22.023C21.7583 22.023 21.7585 22.023 21.7587 22.023L23.2599 22.023C23.8521 22.0247 24.4196 22.2607 24.8383 22.6795C25.2571 23.0982 25.4931 23.6657 25.4948 24.2579L25.4948 24.2593L25.4948 24.6896L25.4948 24.691C25.4931 25.3018 25.2497 25.8871 24.8178 26.319C24.3859 26.7509 23.8006 26.9943 23.1898 26.9959L23.1885 26.9959H22.9928V27.5119C22.9928 27.7797 22.7757 27.9967 22.5079 27.9967C22.2401 27.9967 22.0231 27.7797 22.0231 27.5119V26.9959H21.8824C21.8734 26.9959 21.8644 26.9957 21.8554 26.9952C21.373 26.9683 20.9067 26.8128 20.5047 26.5448C20.1027 26.2768 19.7798 25.9061 19.5694 25.4712C19.4528 25.2301 19.5537 24.9402 19.7948 24.8236C20.0359 24.707 20.3258 24.8079 20.4424 25.049C20.5774 25.3281 20.7846 25.566 21.0426 25.738C21.297 25.9076 21.5917 26.007 21.8967 26.0262L23.1871 26.0263C23.1873 26.0263 23.1875 26.0262 23.1878 26.0262C23.5421 26.0251 23.8816 25.8839 24.1321 25.6333C24.3827 25.3827 24.5239 25.0433 24.5251 24.6889C24.5251 24.6887 24.5251 24.6885 24.5251 24.6883V24.2607C24.5251 24.2605 24.5251 24.2603 24.5251 24.2601C24.524 23.9243 24.3901 23.6026 24.1526 23.3652C23.9152 23.1277 23.5935 22.9938 23.2577 22.9927C23.2575 22.9927 23.2573 22.9927 23.2571 22.9927L21.7573 22.9927L21.7559 22.9927C21.1637 22.991 20.5962 22.755 20.1775 22.3363C19.7587 21.9175 19.5227 21.3501 19.521 20.7578V20.7551C19.5227 20.1629 19.7587 19.5954 20.1775 19.1767C20.5962 18.7579 21.1637 18.5219 21.7559 18.5202L21.7573 18.5202L22.0231 18.5202V17.5039C22.0231 17.2361 22.2401 17.019 22.5079 17.019Z" fill="#42E9BD"/>
</svg>
