<svg width="26" height="26" viewBox="0 0 26 26" fill="none" xmlns="http://www.w3.org/2000/svg">
<path fill-rule="evenodd" clip-rule="evenodd" d="M13 1.72727C6.77438 1.72727 1.72727 6.77438 1.72727 13C1.72727 19.2256 6.77438 24.2727 13 24.2727C19.2256 24.2727 24.2727 19.2256 24.2727 13C24.2727 6.77438 19.2256 1.72727 13 1.72727ZM1 13C1 6.37272 6.37272 1 13 1C19.6273 1 25 6.37272 25 13C25 19.6273 19.6273 25 13 25C6.37272 25 1 19.6273 1 13ZM13 7.54545C11.4481 7.54545 10.1901 8.80432 10.1901 10.3554C10.1901 10.5562 10.0273 10.719 9.82645 10.719C9.62562 10.719 9.46281 10.5562 9.46281 10.3554C9.46281 8.40282 11.0462 6.81818 13 6.81818C14.9526 6.81818 16.5372 8.40274 16.5372 10.3554C16.5372 12.1874 15.1455 13.6921 13.3636 13.8741V16.7025C13.3636 16.9033 13.2008 17.0661 13 17.0661C12.7992 17.0661 12.6364 16.9033 12.6364 16.7025V13.5289C12.6364 13.3281 12.7992 13.1653 13 13.1653C14.5511 13.1653 15.8099 11.9083 15.8099 10.3554C15.8099 8.8044 14.551 7.54545 13 7.54545ZM13 19.1818C12.9089 19.1818 12.8347 19.256 12.8347 19.3471C12.8347 19.4382 12.9089 19.5124 13 19.5124C13.0911 19.5124 13.1653 19.4382 13.1653 19.3471C13.1653 19.256 13.0911 19.1818 13 19.1818ZM12.1074 19.3471C12.1074 18.8543 12.5072 18.4545 13 18.4545C13.4928 18.4545 13.8926 18.8543 13.8926 19.3471C13.8926 19.8399 13.4928 20.2397 13 20.2397C12.5072 20.2397 12.1074 19.8399 12.1074 19.3471Z" fill="#333333" stroke="#333333" stroke-linejoin="round"/>
</svg>
