<svg width="32" height="32" viewBox="0 0 32 32" fill="none" xmlns="http://www.w3.org/2000/svg">
<path fill-rule="evenodd" clip-rule="evenodd" d="M18.1124 2.94263C18.8162 2.89577 19.5232 2.93581 20.2173 3.06183L20.3935 3.09383C21.4153 3.27936 22.4022 3.62235 23.3188 4.11054L23.4876 4.20043C24.13 4.54256 24.7323 4.95511 25.2834 5.43045L25.3411 5.4802C25.9738 6.02586 26.5297 6.6547 26.9936 7.34958C27.5251 8.14583 27.9334 9.03148 28.1971 9.953C28.3733 10.5687 28.4882 11.211 28.5355 11.8492C28.5987 12.7017 28.546 13.5626 28.3781 14.4005C28.2135 15.2226 27.9399 16.019 27.5645 16.7686L27.5005 16.8966C27.1419 17.6128 26.6867 18.2763 26.1475 18.8685C25.5828 19.4888 24.9319 20.0246 24.2146 20.4595L22.9007 21.2561C22.6825 21.3884 22.6129 21.6724 22.7452 21.8905C22.8774 22.1086 23.1614 22.1782 23.3796 22.046L24.6935 21.2493C25.4865 20.7685 26.2063 20.1761 26.8306 19.4903C27.4267 18.8355 27.93 18.1019 28.3264 17.3102L28.3905 17.1822C28.8026 16.359 29.1031 15.4845 29.2839 14.5819C29.4682 13.6615 29.5261 12.7166 29.4567 11.7809C29.4046 11.0793 29.2785 10.3748 29.0852 9.69892C28.7955 8.68653 28.3471 7.71343 27.7618 6.83671C27.2516 6.07247 26.6403 5.38085 25.9444 4.78071L25.8867 4.73096C25.2837 4.21088 24.6247 3.7595 23.9218 3.38515L23.753 3.29527C22.752 2.76215 21.6744 2.3876 20.5585 2.185L20.3823 2.15299C19.6135 2.01342 18.8306 1.96908 18.051 2.02098C16.9996 2.09098 15.9672 2.33517 14.9958 2.7436L14.6012 2.90952C13.5337 3.35839 12.5541 3.99281 11.7078 4.78338C10.6733 5.74978 9.86035 6.92871 9.32475 8.23913L9.07492 8.85037C8.57194 10.081 8.31324 11.3977 8.31324 12.7271C8.31324 14.4705 8.75806 16.1851 9.60562 17.7086L9.91492 18.2646C9.88347 18.2643 9.85202 18.2642 9.82056 18.2642H6.6198V17.4944C6.6198 16.9843 6.20625 16.5708 5.69611 16.5708H0.923693C0.413552 16.5708 0 16.9843 0 17.4944L0 27.963C0 28.4731 0.413552 28.8867 0.923693 28.8867H5.69611C6.20625 28.8867 6.6198 28.4731 6.6198 27.963L6.6198 26.8437L14.9925 29.2274C16.3635 29.6177 17.8008 29.7187 19.213 29.5238C19.5932 29.4713 19.9624 29.3575 20.3062 29.1867L31.4872 23.6331C32.1341 23.3118 32.1785 22.4057 31.566 22.0227L30.8398 21.5686C29.8487 20.9488 28.6361 20.7933 27.5206 21.1429L22.2787 22.7858C22.2627 22.4035 22.1089 22.026 21.8171 21.7341C21.4505 21.3673 20.9532 21.1612 20.4346 21.1612H16.8573L16.0796 20.3832C15.4181 19.7214 14.6141 19.2195 13.729 18.9159C12.8376 18.6101 11.9146 18.4104 10.9791 18.32C10.9698 18.2756 10.9537 18.2318 10.9305 18.1901L10.4128 17.2595C9.64165 15.8734 9.23693 14.3134 9.23693 12.7271C9.23693 11.5175 9.47231 10.3195 9.92995 9.19984L10.1798 8.5886C10.6649 7.40161 11.4013 6.33373 12.3384 5.45836C13.1049 4.74226 13.9922 4.16759 14.9592 3.761L15.3538 3.59508C16.2309 3.22632 17.1631 3.00583 18.1124 2.94263ZM0.923693 17.4944H5.69611L5.69611 27.963H0.923693L0.923693 17.4944ZM21.8171 23.9701C21.8586 23.9287 21.8972 23.8855 21.9331 23.8408C21.978 23.8406 22.0236 23.8337 22.0687 23.8196L27.7969 22.0243C28.6549 21.7554 29.5877 21.875 30.3501 22.3518L31.0763 22.8059L19.8953 28.3594C19.641 28.4857 19.3679 28.5699 19.0867 28.6088C17.8014 28.7861 16.4933 28.6943 15.2454 28.339L6.77375 25.9272L6.77375 19.1879H9.82056C11.0485 19.1879 12.2679 19.3912 13.4293 19.7896C14.1813 20.0476 14.8643 20.4739 15.4263 21.0362L16.249 21.8593C16.3934 22.0038 16.5892 22.0849 16.7935 22.0849H20.4346C20.7081 22.0849 20.9704 22.1936 21.1638 22.3871C21.4205 22.644 21.4205 23.0603 21.1638 23.3172C20.9704 23.5106 20.7081 23.6193 20.4346 23.6193H12.8051C12.55 23.6193 12.3432 23.8261 12.3432 24.0812C12.3432 24.3362 12.55 24.543 12.8051 24.543H20.4346C20.9532 24.543 21.4505 24.3369 21.8171 23.9701Z" fill="#42E9BD"/>
<path d="M18.7066 4.20043C18.9745 4.20048 19.1917 4.41775 19.1917 4.6857L19.1914 6.10027C20.7725 6.33508 21.9845 7.69977 21.9845 9.34433C21.9845 9.61228 21.7673 9.8295 21.4993 9.8295C21.2314 9.8295 21.0142 9.61228 21.0142 9.34433C21.0142 8.07008 19.9808 7.03491 18.7061 7.03491C17.4299 7.03491 16.3967 8.07023 16.3967 9.34433C16.3967 10.6211 17.4299 11.6551 18.7061 11.6551C20.5174 11.6551 21.9845 13.1241 21.9845 14.9349C21.9845 16.5821 20.7723 17.9446 19.1914 18.179L19.1917 19.5928C19.1917 19.8608 18.9745 20.078 18.7066 20.0781C18.4386 20.0781 18.2214 19.861 18.2213 19.593L18.221 18.1791C16.6389 17.9449 15.4263 16.5824 15.4263 14.9349C15.4263 14.6669 15.6435 14.4497 15.9115 14.4497C16.1794 14.4497 16.3967 14.6669 16.3967 14.9349C16.3967 16.2114 17.4296 17.2443 18.7061 17.2443C19.9811 17.2443 21.0142 16.2115 21.0142 14.9349C21.0142 13.6594 19.9809 12.6254 18.7061 12.6254C16.8934 12.6254 15.4263 11.1564 15.4263 9.34433C15.4263 7.69946 16.6387 6.33477 18.221 6.10019L18.2213 4.68549C18.2214 4.41754 18.4386 4.20037 18.7066 4.20043Z" fill="#42E9BD"/>
</svg>
