<svg width="32" height="32" viewBox="0 0 32 32" fill="none" xmlns="http://www.w3.org/2000/svg">
<path fill-rule="evenodd" clip-rule="evenodd" d="M16 0.969666C7.69918 0.969666 0.969697 7.69915 0.969697 16C0.969697 24.3008 7.69918 31.0303 16 31.0303C24.3008 31.0303 31.0303 24.3008 31.0303 16C31.0303 7.69915 24.3008 0.969666 16 0.969666ZM0 16C0 7.1636 7.16363 -3.05176e-05 16 -3.05176e-05C24.8364 -3.05176e-05 32 7.1636 32 16C32 24.8363 24.8364 32 16 32C7.16363 32 0 24.8363 0 16ZM16 8.72724C13.9307 8.72724 12.2534 10.4057 12.2534 12.4738C12.2534 12.7416 12.0364 12.9586 11.7686 12.9586C11.5008 12.9586 11.2837 12.7416 11.2837 12.4738C11.2837 9.87039 13.395 7.75755 16 7.75755C18.6035 7.75755 20.7163 9.87029 20.7163 12.4738C20.7163 14.9164 18.8607 16.9228 16.4848 17.1654V20.9366C16.4848 21.2044 16.2678 21.4215 16 21.4215C15.7322 21.4215 15.5152 21.2044 15.5152 20.9366V16.7052C15.5152 16.4374 15.7322 16.2204 16 16.2204C18.0682 16.2204 19.7466 14.5444 19.7466 12.4738C19.7466 10.4058 18.068 8.72724 16 8.72724ZM16 24.2424C15.8785 24.2424 15.7796 24.3413 15.7796 24.4628C15.7796 24.5843 15.8785 24.6832 16 24.6832C16.1215 24.6832 16.2204 24.5843 16.2204 24.4628C16.2204 24.3413 16.1215 24.2424 16 24.2424ZM14.8099 24.4628C14.8099 23.8057 15.3429 23.2727 16 23.2727C16.6571 23.2727 17.1901 23.8057 17.1901 24.4628C17.1901 25.1198 16.6571 25.6529 16 25.6529C15.3429 25.6529 14.8099 25.1198 14.8099 24.4628Z" fill="#42E9BD"/>
</svg>
