<svg width="26" height="25" viewBox="0 0 26 25" fill="none" xmlns="http://www.w3.org/2000/svg">
<path d="M16.0887 3.65148L15.1004 3.80405C15.1557 4.16208 15.4003 4.46222 15.7398 4.58863L16.0887 3.65148ZM9.90817 3.65148L10.257 4.58866C10.5968 4.46219 10.8415 4.16172 10.8966 3.80338L9.90817 3.65148ZM1 19.8261C0.447715 19.8261 0 20.2738 0 20.8261C0 21.3784 0.447715 21.8261 1 21.8261V19.8261ZM25 21.8261C25.5523 21.8261 26 21.3784 26 20.8261C26 20.2738 25.5523 19.8261 25 19.8261V21.8261ZM17.1304 20.8261C17.1304 20.2738 16.6827 19.8261 16.1304 19.8261C15.5781 19.8261 15.1304 20.2738 15.1304 20.8261H17.1304ZM10.8696 20.8261C10.8696 20.2738 10.4219 19.8261 9.86957 19.8261C9.31728 19.8261 8.86957 20.2738 8.86957 20.8261H10.8696ZM22.8696 17.6957V11.9565H20.8696V17.6957H22.8696ZM22.8696 11.9565C22.8696 7.71323 20.1855 4.10977 16.4376 2.71433L15.7398 4.58863C18.7349 5.70379 20.8696 8.58034 20.8696 11.9565H22.8696ZM17.077 3.4989C16.7717 1.52134 15.0692 0 13 0V2C14.0612 2 14.9424 2.78057 15.1004 3.80405L17.077 3.4989ZM13 0C10.9326 0 9.22406 1.51967 8.91978 3.49958L10.8966 3.80338C11.0535 2.78224 11.937 2 13 2V0ZM9.55934 2.71429C5.80966 4.10998 3.13043 7.71394 3.13043 11.9565H5.13043C5.13043 8.57962 7.26164 5.70358 10.257 4.58866L9.55934 2.71429ZM3.13043 11.9565V17.6957H5.13043V11.9565H3.13043ZM3.13043 17.6957C3.13043 18.8722 2.17593 19.8261 1 19.8261V21.8261C3.28007 21.8261 5.13043 19.9772 5.13043 17.6957H3.13043ZM1 21.8261H25V19.8261H1V21.8261ZM25 19.8261C23.8216 19.8261 22.8696 18.8728 22.8696 17.6957H20.8696C20.8696 19.9765 22.7162 21.8261 25 21.8261V19.8261ZM15.1304 20.8261C15.1304 22.0026 14.1759 22.9565 13 22.9565V24.9565C15.2801 24.9565 17.1304 23.1076 17.1304 20.8261H15.1304ZM13 22.9565C11.8216 22.9565 10.8696 22.0033 10.8696 20.8261H8.86957C8.86957 23.107 10.7162 24.9565 13 24.9565V22.9565Z" fill="#333333"/>
</svg>
