<svg width="32" height="32" viewBox="0 0 32 32" fill="none" xmlns="http://www.w3.org/2000/svg">
<path fill-rule="evenodd" clip-rule="evenodd" d="M10.1831 0.969666C8.96026 0.969666 7.9697 1.96127 7.9697 3.18311V5.39654H24.5389V3.18311C24.5389 1.96127 23.5483 0.969666 22.3254 0.969666H10.1831ZM25.5086 3.18311C25.5086 1.42603 24.0842 -3.05176e-05 22.3254 -3.05176e-05H10.1831C8.4244 -3.05176e-05 7 1.42603 7 3.18311V28.8168C7 30.5739 8.4244 32 10.1831 32H22.3254C24.0842 32 25.5086 30.5739 25.5086 28.8168V3.18311ZM24.5389 6.36624H7.9697V25.6337H24.5389V6.36624ZM24.5389 26.6034H7.9697V28.8168C7.9697 30.0387 8.96026 31.0303 10.1831 31.0303H22.3254C23.5483 31.0303 24.5389 30.0387 24.5389 28.8168V26.6034ZM12.3966 3.18311C12.3966 2.91533 12.6136 2.69826 12.8814 2.69826H19.6271C19.8949 2.69826 20.112 2.91533 20.112 3.18311C20.112 3.45088 19.8949 3.66795 19.6271 3.66795H12.8814C12.6136 3.66795 12.3966 3.45088 12.3966 3.18311ZM18.3536 9.7635C18.7997 9.95807 19.2574 10.2997 19.3693 10.8593C19.4858 11.4432 19.3133 12.1053 19.1569 12.5734C19.0771 12.8126 18.9919 13.0273 18.9293 13.1852C19.1555 13.4911 19.1727 13.8917 19.1448 14.1425C19.1229 14.3397 19.0675 14.5395 18.9817 14.7045C18.9468 14.7717 18.8998 14.8467 18.837 14.9152C18.7817 15.4415 18.5687 15.8476 18.3579 16.1287C18.2523 16.2695 18.1463 16.3803 18.0589 16.4616V17.4807C18.2254 17.5424 18.3901 17.6029 18.5522 17.6625C19.2861 17.9324 19.9677 18.183 20.5271 18.4319C20.9105 18.6026 21.2594 18.782 21.5448 18.9799C21.8266 19.1754 22.0813 19.4127 22.2312 19.7123C22.5236 20.2971 22.6669 20.8832 22.7379 21.3178C22.7737 21.5364 22.7917 21.7201 22.8009 21.8511C22.8054 21.9166 22.8078 21.9692 22.809 22.0065C22.8096 22.0252 22.8099 22.0401 22.8101 22.0509L22.8102 22.0641L22.8103 22.0683L22.8103 22.0698V22.0705C22.8103 22.0706 22.8103 22.071 22.3254 22.071H22.8103C22.8103 22.3387 22.5932 22.5558 22.3254 22.5558H10.1831C9.91536 22.5558 9.69829 22.3387 9.69829 22.071H10.1831C9.69829 22.071 9.69829 22.0711 9.69829 22.071L9.69829 22.0698L9.69829 22.0683L9.69832 22.0641L9.69848 22.0509C9.69865 22.0401 9.69897 22.0252 9.69957 22.0065C9.70079 21.9692 9.70314 21.9166 9.70771 21.8511C9.71684 21.7201 9.73488 21.5364 9.77064 21.3178C9.84171 20.8832 9.98501 20.2971 10.2774 19.7123C10.4271 19.4127 10.6818 19.1754 10.9636 18.9799C11.2489 18.7819 11.5978 18.6025 11.9813 18.4319C12.5405 18.1831 13.2218 17.9326 13.9555 17.6628C14.1179 17.6031 14.2829 17.5425 14.4496 17.4807V16.4616C14.3622 16.3803 14.2563 16.2695 14.1506 16.1287C13.9399 15.8476 13.7268 15.4415 13.6715 14.9152C13.6087 14.8467 13.5617 14.7717 13.5268 14.7045C13.441 14.5395 13.3856 14.3397 13.3637 14.1425C13.3352 13.8856 13.3539 13.4715 13.5963 13.163C13.5778 13.1019 13.5569 13.0323 13.5365 12.9615C13.4599 12.6961 13.3679 12.34 13.3304 11.9802C13.2944 11.6352 13.2988 11.205 13.4926 10.8436C13.595 10.6526 13.7485 10.485 13.9614 10.3692C14.0833 10.3029 14.2157 10.2584 14.3562 10.2327C14.5726 9.92449 14.9384 9.74392 15.2528 9.64022C15.7075 9.49026 16.2618 9.42911 16.7984 9.447C17.3342 9.46486 17.8937 9.56291 18.3536 9.7635ZM13.6637 13.3963C13.6637 13.3961 13.6632 13.394 13.6625 13.3903C13.6635 13.3945 13.6638 13.3964 13.6637 13.3963ZM10.7106 21.5861H21.798C21.7929 21.5503 21.7873 21.513 21.7809 21.4743C21.72 21.1019 21.5994 20.6171 21.3638 20.146C21.3167 20.0518 21.209 19.9272 20.9921 19.7767C20.7786 19.6286 20.4921 19.4777 20.1329 19.3179C19.6052 19.083 18.9694 18.8493 18.2478 18.5839C17.9781 18.4847 17.6964 18.3811 17.4039 18.2714C17.2146 18.2005 17.0892 18.0196 17.0892 17.8175V16.2337C17.0892 16.0721 17.1697 15.9212 17.3038 15.8312L17.3028 15.8319L17.302 15.8324C17.3037 15.8312 17.3079 15.8282 17.3143 15.8233C17.3271 15.8135 17.3485 15.7965 17.3757 15.7723C17.4304 15.7237 17.5061 15.6482 17.5822 15.5468C17.7332 15.3455 17.8811 15.0491 17.8811 14.6499C17.8811 14.465 17.9847 14.3042 18.1369 14.2225C18.1545 14.1776 18.1725 14.1122 18.1811 14.0355C18.1921 13.9357 18.1832 13.8531 18.1659 13.801C18.1579 13.777 18.1503 13.7662 18.148 13.7633C18.148 13.7632 18.1481 13.7633 18.148 13.7633C17.9845 13.6809 17.8811 13.5133 17.8811 13.3301C17.8811 13.2501 17.9 13.1818 17.9067 13.1579C17.9164 13.1226 17.9285 13.0872 17.9396 13.0561C17.9619 12.9939 17.9922 12.9175 18.023 12.8401L18.0251 12.8348C18.0885 12.6748 18.1656 12.4805 18.2372 12.2662C18.3896 11.81 18.4809 11.3624 18.4184 11.0493C18.3983 10.9491 18.295 10.7959 17.9659 10.6523C17.6504 10.5147 17.2201 10.4313 16.7661 10.4162C16.3127 10.401 15.8772 10.4554 15.5565 10.5611C15.1971 10.6797 15.1419 10.8039 15.1409 10.8081C15.0869 11.0239 14.893 11.1753 14.6705 11.1753C14.5338 11.1753 14.4609 11.2014 14.4248 11.221C14.3923 11.2387 14.3684 11.2622 14.3471 11.3019C14.2935 11.402 14.2648 11.5915 14.2949 11.8796C14.3233 12.1529 14.3963 12.4434 14.4682 12.6929C14.4918 12.7746 14.513 12.8445 14.5327 12.9095C14.5439 12.9465 14.5547 12.982 14.5651 13.0172C14.5783 13.0616 14.5915 13.1074 14.6016 13.1481L14.6022 13.1503C14.6089 13.1772 14.6274 13.2516 14.6274 13.3301C14.6274 13.5133 14.5242 13.6808 14.3606 13.7631C14.3606 13.7632 14.3607 13.7631 14.3606 13.7631C14.3583 13.7661 14.3507 13.777 14.3427 13.801C14.3253 13.8531 14.3164 13.9357 14.3275 14.0355C14.336 14.1122 14.354 14.1776 14.3716 14.2225C14.5239 14.3042 14.6274 14.465 14.6274 14.6499C14.6274 15.0491 14.7754 15.3455 14.9264 15.5468C15.0024 15.6482 15.0781 15.7237 15.1329 15.7723C15.16 15.7965 15.1814 15.8135 15.1943 15.8233C15.2007 15.8282 15.2049 15.8312 15.2066 15.8324L15.2058 15.8319L15.2047 15.8312L15.2041 15.8307C15.3387 15.9207 15.4193 16.0718 15.4193 16.2337V17.8175C15.4193 18.0196 15.2939 18.2005 15.1047 18.2714C14.8118 18.3813 14.5298 18.485 14.2598 18.5843C13.5386 18.8495 12.903 19.0831 12.3755 19.3179C12.0162 19.4778 11.7298 19.6286 11.5163 19.7766C11.2994 19.9272 11.1918 20.0517 11.1448 20.1458C10.9093 20.6168 10.7885 21.1019 10.7276 21.4743C10.7213 21.513 10.7156 21.5503 10.7106 21.5861ZM15.2071 15.8327C15.2076 15.8331 15.2074 15.833 15.2066 15.8324L15.2071 15.8327ZM17.3015 15.8327L17.302 15.8324C17.3012 15.833 17.301 15.8331 17.3015 15.8327ZM16.2543 28.6271C16.1497 28.6271 16.0646 28.7122 16.0646 28.8168C16.0646 28.9214 16.1497 29.0066 16.2543 29.0066C16.3589 29.0066 16.444 28.9214 16.444 28.8168C16.444 28.7122 16.3589 28.6271 16.2543 28.6271ZM15.0949 28.8168C15.0949 28.1767 15.6141 27.6574 16.2543 27.6574C16.8944 27.6574 17.4137 28.1767 17.4137 28.8168C17.4137 29.457 16.8944 29.9763 16.2543 29.9763C15.6141 29.9763 15.0949 29.457 15.0949 28.8168Z" fill="#42E9BD"/>
</svg>
