<svg width="32" height="32" viewBox="0 0 32 32" fill="none" xmlns="http://www.w3.org/2000/svg">
<path fill-rule="evenodd" clip-rule="evenodd" d="M15.5863 0.181047C15.6783 0.0665612 15.8173 -3.05176e-05 15.9641 -3.05176e-05H15.9871C16.1339 -3.05176e-05 16.2728 0.0665008 16.3648 0.180898C17.6904 1.82853 19.5072 2.93546 21.6647 3.16509C23.8236 3.39487 26.3809 2.75179 29.1901 0.790195C29.3383 0.68675 29.5317 0.674266 29.6919 0.757802C29.8521 0.841338 29.9526 1.00704 29.9526 1.18772V21.1712C29.9526 21.2147 29.9467 21.258 29.9352 21.2999L29.4677 21.1712C29.9352 21.2999 29.9351 21.3002 29.935 21.3006L29.9348 21.3015L29.9341 21.3037L29.9323 21.3101L29.9263 21.3307C29.9212 21.3477 29.9139 21.3714 29.9041 21.4014C29.8847 21.4615 29.8554 21.5468 29.8146 21.6548C29.7328 21.8706 29.6044 22.177 29.4142 22.552C29.0338 23.3021 28.4063 24.327 27.4108 25.4518C25.4162 27.7054 21.9619 30.3406 16.1072 31.982C16.0216 32.006 15.931 32.006 15.8454 31.982C9.99069 30.3406 6.53636 27.7054 4.5418 25.4518C3.54628 24.327 2.91873 23.3021 2.53832 22.552C2.34816 22.177 2.21977 21.8706 2.13802 21.6548C2.09714 21.5468 2.06791 21.4615 2.04843 21.4014C2.0387 21.3714 2.0314 21.3477 2.0263 21.3307L2.02027 21.3101L2.01844 21.3037L2.01781 21.3015L2.01757 21.3006C2.01747 21.3002 2.01737 21.2999 2.48485 21.1712L2.01737 21.2999C2.00584 21.258 2 21.2147 2 21.1712V1.18772C2 1.007 2.10051 0.841284 2.26077 0.757762C2.42103 0.67424 2.61444 0.686779 2.76257 0.790294C5.6078 2.77853 8.17345 3.40974 10.3265 3.16841C12.479 2.92717 14.2787 1.80764 15.5863 0.181047ZM2.9697 21.0988C2.97007 21.0999 2.97045 21.1011 2.97084 21.1023C2.98565 21.148 3.00971 21.2185 3.04486 21.3113C3.11515 21.4969 3.22971 21.7713 3.40318 22.1134C3.75005 22.7974 4.3325 23.7522 5.26794 24.8091C7.12092 26.9028 10.3761 29.4167 15.9763 31.0113C21.5765 29.4167 24.8316 26.9028 26.6846 24.8091C27.6201 23.7522 28.2025 22.7974 28.5494 22.1134C28.7229 21.7713 28.8374 21.4969 28.9077 21.3113C28.9429 21.2185 28.9669 21.148 28.9817 21.1023C28.9821 21.1011 28.9825 21.0999 28.9829 21.0988V2.0909C26.3117 3.76883 23.7932 4.36681 21.562 4.12934C19.3155 3.89022 17.4088 2.80887 15.9758 1.2191C14.5625 2.78872 12.6747 3.88099 10.4345 4.13208C8.20395 4.38209 5.67381 3.79284 2.9697 2.09149V21.0988ZM15.9766 6.07112C16.2443 6.07112 16.4614 6.28819 16.4614 6.55596V8.12501C18.3635 8.36357 19.8343 9.98717 19.8343 11.9525C19.8343 12.2203 19.6172 12.4374 19.3494 12.4374C19.0816 12.4374 18.8646 12.2203 18.8646 11.9525C18.8646 10.5235 17.8257 9.33577 16.4614 9.10506V14.8707C18.3635 15.1093 19.8343 16.7329 19.8343 18.6983C19.8343 20.665 18.3634 22.2874 16.4614 22.5258V24.0948C16.4614 24.3626 16.2443 24.5797 15.9766 24.5797C15.7088 24.5797 15.4917 24.3626 15.4917 24.0948V22.5258C13.5897 22.2874 12.1188 20.665 12.1188 18.6983C12.1188 18.4305 12.3359 18.2134 12.6037 18.2134C12.8715 18.2134 13.0885 18.4305 13.0885 18.6983C13.0885 20.1284 14.1273 21.3153 15.4917 21.5458V15.7801C13.5897 15.5417 12.1188 13.9193 12.1188 11.9525C12.1188 9.98717 13.5896 8.36357 15.4917 8.12501V6.55596C15.4917 6.28819 15.7088 6.07112 15.9766 6.07112ZM15.4917 9.10506C14.1274 9.33577 13.0885 10.5235 13.0885 11.9525C13.0885 13.3827 14.1273 14.5696 15.4917 14.8001V9.10506ZM16.4614 15.8508V21.5458C17.8258 21.3153 18.8646 20.1284 18.8646 18.6983C18.8646 17.2692 17.8257 16.0815 16.4614 15.8508Z" fill="#42E9BD"/>
</svg>
