<svg width="66" height="66" viewBox="0 0 66 66" fill="none" xmlns="http://www.w3.org/2000/svg">
<path fill-rule="evenodd" clip-rule="evenodd" d="M63.0561 32.4753C62.7688 15.8599 49.5946 2.65482 33.0169 2.94407C16.3955 3.23135 2.6546 16.9503 2.94389 33.5218C3.23122 50.1427 16.4053 63.3425 32.9832 63.056C49.6077 62.7659 63.3454 49.0524 63.0561 32.4753ZM64.9952 32.4417C64.6901 14.7993 50.6752 0.69628 32.9832 1.00497C15.3349 1.31 0.696038 15.8694 1.0048 33.5557C1.30988 51.2038 15.3249 65.3009 33.0168 64.9951C50.6677 64.6872 65.3039 50.1336 64.9952 32.4417ZM33 16.5131C33.5355 16.5131 33.9697 16.9472 33.9697 17.4828V37.2263C33.9697 37.7618 33.5355 38.196 33 38.196C32.4645 38.196 32.0303 37.7618 32.0303 37.2263V17.4828C32.0303 16.9472 32.4645 16.5131 33 16.5131ZM33 46.6575C32.7568 46.6575 32.5592 46.8553 32.5592 47.098C32.5592 47.3408 32.7568 47.5386 33 47.5386C33.2432 47.5386 33.4408 47.3408 33.4408 47.098C33.4408 46.8553 33.2432 46.6575 33 46.6575ZM30.6198 47.098C30.6198 45.7839 31.686 44.7181 33 44.7181C34.314 44.7181 35.3802 45.7839 35.3802 47.098C35.3802 48.4122 34.314 49.478 33 49.478C31.686 49.478 30.6198 48.4122 30.6198 47.098Z" fill="#FA6159"/>
<path d="M32.9832 1.00497C50.6752 0.69628 64.6901 14.7993 64.9952 32.4417C65.3039 50.1336 50.6677 64.6872 33.0168 64.9951C15.3249 65.3009 1.30988 51.2038 1.0048 33.5557C0.696038 15.8694 15.3349 1.31 32.9832 1.00497ZM32.9832 1.00497L33 1.97452M33.0169 2.94407C49.5946 2.65482 62.7688 15.8599 63.0561 32.4753C63.3454 49.0524 49.6077 62.7659 32.9832 63.056C16.4053 63.3425 3.23122 50.1427 2.94389 33.5218C2.6546 16.9503 16.3955 3.23135 33.0169 2.94407ZM33.9697 17.4828C33.9697 16.9472 33.5355 16.5131 33 16.5131C32.4645 16.5131 32.0303 16.9472 32.0303 17.4828V37.2263C32.0303 37.7618 32.4645 38.196 33 38.196C33.5355 38.196 33.9697 37.7618 33.9697 37.2263V17.4828ZM32.5592 47.098C32.5592 46.8553 32.7568 46.6575 33 46.6575C33.2432 46.6575 33.4408 46.8553 33.4408 47.098C33.4408 47.3408 33.2432 47.5386 33 47.5386C32.7568 47.5386 32.5592 47.3408 32.5592 47.098ZM33 44.7181C31.686 44.7181 30.6198 45.7839 30.6198 47.098C30.6198 48.4122 31.686 49.478 33 49.478C34.314 49.478 35.3802 48.4122 35.3802 47.098C35.3802 45.7839 34.314 44.7181 33 44.7181Z" stroke="#FA6159" stroke-linejoin="round"/>
</svg>
